<svg version="1.1" xmlns="http://www.w3.org/2000/svg" xmlns:xlink="http://www.w3.org/1999/xlink" width="139.60674" height="164.26032" viewBox="0,0,139.60674,164.26032"><g transform="translate(-171.85863,-87.60354)"><g data-paper-data="{&quot;isPaintingLayer&quot;:true}" fill-rule="nonzero" stroke-linecap="butt" stroke-linejoin="miter" stroke-miterlimit="10" stroke-dasharray="" stroke-dashoffset="0" style="mix-blend-mode: normal"><path d="M253.98788,149.28438c-0.03793,0.14723 -0.08792,0.30012 -0.15139,0.45878c-1.04654,2.61636 -3.6629,1.56982 -3.6629,1.56982c-10.07351,-4.26881 -24.60127,2.64422 -32.89599,8.18201c-4.59618,3.06852 -13.15999,8.14383 -10.97139,15.19491c0.89042,2.8687 3.82858,4.81612 5.90118,6.60549c13.85449,6.81324 29.53394,6.85193 44.64856,6.85193c5.7892,0 13.85436,1.50022 18.92929,-2.00868c4.00981,-2.77246 4.02813,-7.36688 4.46284,-11.65764c0,-11.15752 -9.41641,-21.48356 -20.14616,-24.18173c-1.96586,-0.49434 -4.01982,-0.81234 -6.11404,-1.01488zM232.62448,146.01599c0.09466,-2.67339 2.81538,-2.67339 2.81538,-2.67339h3.38149c7.3478,0 15.4917,-0.291 22.67878,1.49705c13.40454,3.33487 24.37678,16.12009 24.37678,29.9221c-0.60436,6.11638 -1.22939,12.02048 -6.80879,15.95786c-6.32405,4.46286 -14.95086,3.06355 -22.21216,3.06355c-16.31403,0 -32.92169,-0.28414 -47.77881,-7.80119c-3.42512,-2.9771 -6.78727,-5.04573 -8.18835,-9.73837c-2.48085,-8.3091 3.85537,-14.73003 9.76848,-19.10441c5.92338,-4.38199 13.81869,-8.84489 21.96721,-11.12318z" fill="#000000" stroke="none" stroke-width="0.5"></path><path d="M208.37506,139.98402c0.32253,-0.41058 0.65124,-0.64069 0.65124,-0.64069c5.06654,-3.4947 11.03507,-5.03499 16.94914,-6.61289c10.05716,-2.68328 20.71411,-4.27807 31.17736,-3.17992c8.45027,0.88687 17.02942,5.08995 24.34316,9.17343c10.78144,8.13076 15.09576,20.26289 17.55657,33.00443c1.27473,6.60032 2.58152,14.00819 -0.89225,20.12161c-4.73551,8.33393 -13.47708,10.16912 -21.48249,13.88808c-8.23642,2.07815 -16.66388,4.72821 -25.10873,5.7762c-16.97916,2.10707 -34.27826,-0.35652 -49.0008,-9.20717c-13.39898,-10.39694 -23.83299,-32.97682 -13.68446,-48.73611c4.52984,-7.03421 11.85973,-10.86182 19.49125,-13.58697zM226.7292,138.36093c0.04518,2.09207 -2.15933,2.64319 -2.15933,2.64319l-2.16362,0.53929c-2.52512,0.72136 -5.04382,1.46574 -7.55378,2.23814c-8.13523,2.50104 -16.41921,5.62106 -21.33886,13.00305c-8.53974,12.814 1.52931,32.51966 12.24029,40.87336c13.51925,8.09293 29.55349,10.22498 45.11732,8.26385c8.05096,-1.01447 16.05693,-3.54874 23.92286,-5.49543c6.84275,-3.20844 14.32133,-4.51762 18.5318,-11.47309c2.73511,-4.51826 1.15033,-11.22169 0.19114,-16.16651c-2.14131,-11.03885 -5.62459,-22.29239 -15.08739,-29.33423c-6.54616,-3.61606 -14.31931,-7.52987 -21.87052,-8.2976c-9.79873,-0.99623 -19.7109,0.51013 -29.12586,3.01948c-0.23402,0.06238 -0.46874,0.12447 -0.70403,0.18648z" fill="#000000" stroke="none" stroke-width="0.5"></path><path d="M227.40945,138.12336c9.41496,-2.50935 19.3715,-4.01706 29.17025,-3.02083c7.55121,0.76773 15.34861,4.69985 21.89477,8.31592c9.4628,7.04184 12.95755,18.3318 15.09884,29.37065c0.95919,4.94481 2.54069,11.66501 -0.19441,16.18327c-4.21047,6.95546 -11.70066,8.2838 -18.5434,11.49224c-7.86593,1.94669 -15.9004,4.49762 -23.95137,5.51209c-15.56382,1.96113 -31.65648,-0.19251 -45.17573,-8.28544c-10.71098,-8.3537 -20.78875,-28.10803 -12.24902,-40.92203c4.91965,-7.38199 13.21742,-10.52589 21.35265,-13.02694c2.50997,-0.7724 5.03704,-1.52386 7.56215,-2.24522l2.16647,-0.54114c0,0 2.20892,-0.55354 2.16375,-2.64561c0.23528,-0.06201 0.47102,-0.12459 0.70504,-0.18696z" data-paper-data="{&quot;noHover&quot;:false,&quot;origItem&quot;:[&quot;Path&quot;,{&quot;applyMatrix&quot;:true,&quot;segments&quot;:[[[448.79412,295.91072],[0.41748,-0.11002],[0.08015,3.7121]],[444.96268,300.60071],[[441.12361,301.55762],[0,0],[-4.48047,1.27996]],[[427.72043,305.5289],[4.4536,-1.37052],[-14.43488,4.43776]],[[389.85747,328.60109],[8.72926,-13.09836],[-15.15263,22.73671]],[[411.57623,401.12539],[-19.0052,-14.82252],[23.9881,14.35983]],[[491.63087,415.78848],[-27.61592,3.47977],[14.28536,-1.80004]],[[534.07878,406.03757],[-13.95704,3.45414],[12.14154,-5.69294]],[[566.96098,385.68011],[-7.47091,12.34154],[4.85309,-8.01704]],[[567.30013,356.99482],[1.70195,8.7739],[-3.79946,-19.58696]],[[540.52957,304.94515],[16.79047,12.4948],[-11.61527,-6.41622]],[[501.72325,290.22218],[13.39862,1.36223],[-17.38655,-1.76768]],[[450.04332,295.57984],[16.70558,-4.45249],[-0.41524,0.11067]]],&quot;closed&quot;:true}]}" fill="#78ad00" stroke="none" stroke-width="0.5"></path><path d="M287.26518,170.95809c0,12.91719 -19.29738,23.38863 -43.10191,23.38863c-23.80452,0 -43.10191,-10.47145 -43.10191,-23.38863c0,-12.91719 19.29738,-23.38863 43.10191,-23.38863c23.80452,0 43.10191,10.47145 43.10191,23.38863z" fill="#9add00" stroke="#000000" stroke-width="2.5"></path><text transform="translate(173.52062,215.19862) scale(3.32397,2.93322)" font-size="40" xml:space="preserve" fill="#9966ff" fill-rule="nonzero" stroke="none" stroke-width="1" stroke-linecap="butt" stroke-linejoin="miter" stroke-miterlimit="10" stroke-dasharray="" stroke-dashoffset="0" font-family="Sans Serif" font-weight="normal" text-anchor="start" style="mix-blend-mode: normal"><tspan x="0" dy="0">🤢</tspan></text></g></g></svg>