<svg version="1.1" xmlns="http://www.w3.org/2000/svg" xmlns:xlink="http://www.w3.org/1999/xlink" width="820.31832" height="560.55856" viewBox="0,0,820.31832,560.55856"><g transform="translate(176.16517,106.28529)"><g data-paper-data="{&quot;isPaintingLayer&quot;:true}" stroke-miterlimit="10" stroke-dasharray="" stroke-dashoffset="0" style="mix-blend-mode: normal"><path d="M-175.16517,453.27327v-558.55856h818.31832v558.55856z" fill="#000000" fill-rule="nonzero" stroke="#000000" stroke-width="2" stroke-linecap="butt" stroke-linejoin="miter"></path><g fill-rule="evenodd"><path d="M85.51598,285.27336c1.60524,0.80262 5.01638,2.60852 0.20066,9.43079c-4.81572,6.82227 -18.66092,8.22686 -20.26616,8.22686c-6.22031,0.20066 -13.8452,0.20066 -22.27271,-2.60852c-24.47992,-8.0262 -24.68057,-34.31201 -16.85502,-38.52577c7.62489,-4.21376 11.03603,12.0393 22.07206,21.8714c4.81572,4.41441 10.63472,6.01965 15.45044,7.02293c6.82227,1.20393 19.86485,-6.42096 21.67075,-5.41769z" fill="#ffab19" stroke="#001026" stroke-width="1.2" stroke-linecap="round" stroke-linejoin="round"></path><path d="M35.75353,269.0203c3.21048,5.41769 9.43079,13.04258 9.43079,13.04258c0,0 -7.42424,-1.8059 -11.63799,1.60524c-3.41114,2.60852 -2.60852,7.02293 -2.20721,8.42751c-2.60852,-2.60852 -5.819,-6.22031 -7.82555,-13.24323c-2.00655,-7.02293 0,-15.45044 4.0131,-16.65437c4.0131,-0.80262 5.01638,2.20721 8.22686,6.82227z" fill="#ffffff" stroke="none" stroke-width="1" stroke-linecap="butt" stroke-linejoin="miter"></path></g><path d="M95.54873,306.14149c-3.61179,2.40786 -16.0524,11.23668 -31.90415,16.25306l-0.80262,0.20066c-0.80262,0.20066 -1.20393,1.20393 -0.80262,2.00655c3.41114,4.81572 9.63144,14.44716 -1.40459,17.8583c-10.63472,3.41114 -30.49957,-24.88123 -22.07206,-32.30546c3.81245,-2.80917 7.22358,-1.40459 9.02948,-0.60197c1.00328,0.40131 2.00655,0.40131 3.00983,0.20066c2.40786,-0.80262 6.82227,-2.40786 10.23341,-4.21376c8.62817,-4.41441 10.63472,-6.22031 14.64782,-9.23013c4.0131,-3.00983 13.24323,-10.43406 20.66747,-4.0131c6.42096,5.41769 2.80917,11.43734 -0.60197,13.8452z" fill="#ffab19" fill-rule="evenodd" stroke="#001026" stroke-width="1.2" stroke-linecap="round" stroke-linejoin="round"></path><path d="M127.45289,264.40524c1.00328,0.80262 13.24323,15.24978 17.25633,11.63799c4.81572,-4.21376 11.43734,-12.44061 18.66092,-5.819c7.22358,6.62162 -6.42096,17.8583 -12.23996,20.86813c-13.8452,6.22031 -25.08188,-5.61834 -27.48974,-8.82882c-2.40786,-3.21048 -6.62162,-8.62817 -6.62162,-13.8452c0.20066,-5.61834 7.02293,-7.02293 10.43406,-4.0131z" fill="#ffab19" fill-rule="evenodd" stroke="#001026" stroke-width="1.2" stroke-linecap="round" stroke-linejoin="round"></path><g fill-rule="evenodd"><path d="M127.65354,311.15786c4.21376,3.81245 13.44389,11.63799 13.44389,11.63799c0,0 28.69367,-5.01638 28.69367,9.43079c0,8.62817 -14.44716,10.63472 -33.9107,8.82882c-1.20393,-0.20066 -2.40786,-0.60197 -3.41114,-1.40459c-4.41441,-3.81245 -17.05568,-15.04913 -25.08188,-22.87468c-11.83865,-11.63799 -21.67075,-19.26289 -21.67075,-19.26289c-17.05568,-16.65437 -3.21048,-23.6773 2.20721,-33.30874c5.01638,-8.22686 7.22358,-6.62162 19.26289,-4.21376c6.82227,1.00328 10.83537,1.60524 15.24978,1.40459c6.62162,-0.20066 5.41769,9.43079 3.61179,14.44716c0,0 -2.80917,7.42424 -5.41769,11.23668c-3.21048,4.61507 -5.61834,7.62489 -8.0262,9.43079z" fill="#ffab19" stroke="#001026" stroke-width="1.2" stroke-linecap="round" stroke-linejoin="round"></path><path d="M110.79852,296.30939c0,0 -3.00983,-2.40786 -6.22031,-5.41769c-4.0131,-3.61179 -8.0262,-6.62162 -4.0131,-12.84192c3.61179,-4.81572 7.02293,-11.23668 16.0524,-5.41769c8.62817,5.41769 4.81572,10.43406 4.81572,10.43406c-4.41441,9.02948 -10.63472,13.24323 -10.63472,13.24323z" fill="#ffffff" stroke="none" stroke-width="1" stroke-linecap="butt" stroke-linejoin="miter"></path></g><path d="M80.4996,279.85567c4.41441,5.61834 11.23668,12.64127 2.60852,18.46026c-11.83865,6.62162 -21.67075,-13.44389 -23.6773,-20.46682c-1.8059,-6.22031 3.41114,-10.23341 7.82555,-13.64454c8.62817,-6.22031 15.85175,-11.83865 23.87795,-8.82882c10.03275,3.61179 2.80917,11.63799 -2.20721,15.24978c-3.00983,2.20721 -6.01965,4.61507 -8.22686,6.01965c-0.60197,1.00328 -0.80262,2.20721 -0.20066,3.21048z" fill="#ffab19" fill-rule="evenodd" stroke="#001026" stroke-width="1.2" stroke-linecap="round" stroke-linejoin="round"></path><g fill-rule="evenodd"><path d="M143.70595,144.61417c0.60197,-0.40131 1.60524,-0.20066 1.8059,0.60197l5.21703,21.47009c0,0 12.84192,9.43079 16.65437,16.0524c6.42096,11.03603 6.62162,20.06551 6.62162,20.06551c0,0 14.24651,4.21376 16.65437,15.65109c2.40786,11.43734 -6.42096,33.10808 -44.14411,40.53232c-37.72315,7.42424 -68.02206,-2.80917 -82.26857,-25.68385c-14.24651,-22.87468 8.22686,-50.16376 7.02293,-48.55852l-4.21376,-35.91725c-0.20066,-0.80262 0.80262,-1.40459 1.60524,-1.00328l24.27926,15.85175c0,0 9.02948,-3.41114 18.46026,-3.81245c5.61834,-0.40131 10.43406,0 15.04913,0.80262z" fill="#ffab19" stroke="#001026" stroke-width="1.2" stroke-linecap="butt" stroke-linejoin="miter"></path><path d="M173.40289,203.60675c0,0 13.8452,3.61179 16.25306,15.04913c2.40786,11.43734 -7.22358,32.10481 -44.54542,39.32839c-48.55852,10.03275 -71.63385,-18.86157 -58.18997,-40.13101c13.44389,-21.47009 36.51922,-3.21048 53.37424,-4.41441c14.44716,-1.00328 16.0524,-13.64454 33.10808,-9.8321z" fill="#ffffff" stroke="none" stroke-width="1" stroke-linecap="butt" stroke-linejoin="miter"></path><path d="M110.19655,225.07684c0,-0.80262 0.80262,-1.40459 1.60524,-1.20393c3.81245,1.40459 14.64782,4.61507 26.68712,5.41769c10.83537,0.60197 17.25633,0 20.26616,-0.60197c1.00328,-0.20066 1.8059,0.80262 1.40459,1.8059c-1.8059,5.41769 -9.43079,20.46682 -30.49957,19.26289c-18.25961,-2.00655 -20.06551,-14.84847 -19.46354,-24.68057z" fill="#ffffff" stroke="#001026" stroke-width="1.2" stroke-linecap="round" stroke-linejoin="round"></path><path d="M210.32342,205.81396c-9.43079,7.62489 -23.87795,7.82555 -23.87795,7.82555" fill="none" stroke="#001026" stroke-width="1.2" stroke-linecap="round" stroke-linejoin="round"></path><path d="M207.71491,228.28733c-12.64127,1.00328 -20.46682,-2.80917 -20.46682,-2.80917" fill="none" stroke="#001026" stroke-width="1.2" stroke-linecap="round" stroke-linejoin="round"></path><path d="M139.49219,208.22182c4.21376,0 8.62817,0.40131 8.82882,1.8059c0.20066,2.80917 -2.80917,8.42751 -6.01965,8.62817c-3.61179,0.40131 -12.0393,-4.61507 -12.0393,-7.82555c-0.20066,-2.40786 5.21703,-2.60852 9.23013,-2.60852z" fill="#001026" stroke="#001026" stroke-width="1.2" stroke-linecap="round" stroke-linejoin="round"></path><path d="M49.19742,205.21199c0,0 17.25633,5.61834 24.27926,11.83865" fill="none" stroke="#001026" stroke-width="1.2" stroke-linecap="round" stroke-linejoin="round"></path><path d="M74.07864,224.07357c-8.62817,3.41114 -23.47664,1.20393 -23.47664,1.20393" fill="none" stroke="#001026" stroke-width="1.2" stroke-linecap="round" stroke-linejoin="round"></path><g><path d="M163.16949,184.74518c5.819,9.02948 6.01965,19.26289 0.40131,22.87468c-5.61834,3.61179 -14.84847,-0.60197 -20.86813,-9.63144c-5.819,-9.02948 -6.01965,-19.26289 -0.40131,-22.87468c5.61834,-3.81245 15.04913,0.60197 20.86813,9.63144z" fill="#ffffff" stroke="#001026" stroke-width="1.2" stroke-linecap="round" stroke-linejoin="round"></path><path d="M162.36687,196.18252c0,2.20721 -1.60524,4.0131 -3.61179,4.0131c-2.00655,0 -3.61179,-1.8059 -3.61179,-4.0131c0,-2.20721 1.60524,-4.0131 3.61179,-4.0131c2.00655,0 3.61179,1.8059 3.61179,4.0131" fill="#001026" stroke="none" stroke-width="1" stroke-linecap="butt" stroke-linejoin="miter"></path></g><g><path d="M113.40703,190.36352c6.01965,8.82882 5.61834,19.6642 0.20066,23.47664c-6.62162,3.81245 -15.45044,1.00328 -21.47009,-7.82555c-6.22031,-8.82882 -6.62162,-20.26616 -0.40131,-24.68057c6.22031,-4.61507 15.65109,0.20066 21.67075,9.02948z" fill="#ffffff" stroke="#001026" stroke-width="1.2" stroke-linecap="round" stroke-linejoin="round"></path><path d="M112.2031,202.00151c0,2.20721 -1.60524,4.0131 -3.61179,4.0131c-2.00655,0 -3.61179,-1.8059 -3.61179,-4.0131c0,-2.20721 1.60524,-4.0131 3.61179,-4.0131c2.00655,0.20066 3.61179,1.8059 3.61179,4.0131" fill="#001026" stroke="none" stroke-width="1" stroke-linecap="butt" stroke-linejoin="miter"></path></g></g><path d="M81.59159,154.47447l46.54655,49.54955l31.53153,-54.05405" fill="none" fill-rule="nonzero" stroke="#ff0000" stroke-width="5" stroke-linecap="round" stroke-linejoin="miter"></path><text transform="translate(6.51652,83.9039) scale(0.8148,0.5)" font-size="40" xml:space="preserve" fill="#ff0000" fill-rule="nonzero" stroke="none" stroke-width="1" stroke-linecap="butt" stroke-linejoin="miter" stroke-miterlimit="10" stroke-dasharray="" stroke-dashoffset="0" font-family="Sans Serif" font-weight="normal" text-anchor="start" style="mix-blend-mode: normal"><tspan x="0" dy="0">You CANCELED HAHAYES</tspan></text></g></g></svg>